<svg width="51" height="51" viewBox="0 0 51 51" fill="none" xmlns="http://www.w3.org/2000/svg">
<path d="M25.4873 50.5444C39.2302 50.5444 50.5 39.2804 50.5 25.5444C50.5 11.8084 39.2302 0.544434 25.4873 0.544434C11.7698 0.544434 0.5 11.8084 0.5 25.5444C0.5 39.2804 11.7698 50.5444 25.4873 50.5444ZM25.4873 33.9032C16.9712 33.9032 10.6224 37.8533 8.60811 41.2427C4.78353 37.1143 2.43779 31.6097 2.43779 25.5444C2.43779 12.8278 12.7642 2.50672 25.4873 2.50672C38.2104 2.50672 48.5622 12.8278 48.5622 25.5444C48.5622 31.6097 46.2165 37.1397 42.3664 41.2682C40.3521 37.8533 34.0288 33.9032 25.4873 33.9032ZM25.4873 29.4945C30.3827 29.4945 34.1308 25.3406 34.1308 19.9124C34.1308 14.8156 30.3062 10.5342 25.4873 10.5342C20.6938 10.5342 16.8437 14.8156 16.8692 19.9124C16.8692 25.3406 20.6173 29.469 25.4873 29.4945Z" fill="#5F8BCC"/>
</svg>
