<svg width="20" height="20" viewBox="0 0 20 20" fill="none" xmlns="http://www.w3.org/2000/svg">
<path d="M15.8555 12.9688C14.6976 12.9688 13.6773 13.5383 13.0364 14.4045L7.4957 11.5673C7.5877 11.2538 7.65234 10.9288 7.65234 10.5859C7.65234 10.1209 7.55699 9.67871 7.39227 9.27203L13.1909 5.78266C13.8362 6.54 14.7847 7.03125 15.8555 7.03125C17.7941 7.03125 19.3711 5.45426 19.3711 3.51562C19.3711 1.57699 17.7941 0 15.8555 0C13.9168 0 12.3398 1.57699 12.3398 3.51562C12.3398 3.96238 12.4318 4.38617 12.5845 4.77961L6.76855 8.27922C6.12379 7.54437 5.18895 7.07031 4.13672 7.07031C2.19809 7.07031 0.621094 8.6473 0.621094 10.5859C0.621094 12.5246 2.19809 14.1016 4.13672 14.1016C5.31367 14.1016 6.35121 13.5153 6.98965 12.6248L12.5121 15.4527C12.4104 15.7811 12.3398 16.123 12.3398 16.4844C12.3398 18.423 13.9168 20 15.8555 20C17.7941 20 19.3711 18.423 19.3711 16.4844C19.3711 14.5457 17.7941 12.9688 15.8555 12.9688Z" fill="#594C42"/>
</svg>
