<svg width="40" height="41" viewBox="0 0 40 41" fill="none" xmlns="http://www.w3.org/2000/svg">
<path d="M36 1.80444H4C1.832 1.80444 0 3.63644 0 5.80444V27.8044C0 29.9724 1.832 31.8044 4 31.8044H9.33333V38.4711C9.33333 38.7464 9.50267 38.9938 9.75933 39.0931C9.838 39.1231 9.91933 39.1378 10 39.1378C10.184 39.1378 10.3647 39.0611 10.4933 38.9198L16.9613 31.8044H36C38.168 31.8044 40 29.9724 40 27.8044V5.80444C40 3.63644 38.168 1.80444 36 1.80444ZM38.6667 27.8044C38.6667 29.2498 37.4453 30.4711 36 30.4711H18.1193L20.5053 27.6971C20.7453 27.4184 20.714 26.9971 20.4347 26.7571C20.156 26.5171 19.734 26.5491 19.494 26.8278L16.162 30.7018L10.6667 36.7471V31.1378C10.6667 30.7698 10.368 30.4711 10 30.4711H4C2.55467 30.4711 1.33333 29.2498 1.33333 27.8044V5.80444C1.33333 4.35911 2.55467 3.13778 4 3.13778H36C37.4453 3.13778 38.6667 4.35911 38.6667 5.80444V27.8044Z" fill="#594C42"/>
</svg>
