<svg width="40" height="41" viewBox="0 0 40 41" fill="none" xmlns="http://www.w3.org/2000/svg">
<g clip-path="url(#clip0)">
<path d="M34.5014 15.0395C26.4682 7.00637 13.3986 7.00637 5.36554 15.0395L0 20.4043L5.49865 25.903C9.51486 29.9192 14.7905 31.928 20.0669 31.928C25.3432 31.928 30.6182 29.9199 34.6351 25.903L40.0007 20.5375L34.5014 15.0395ZM33.6791 24.9476C26.173 32.453 13.9601 32.453 6.45405 24.9476L1.91081 20.4043L6.32095 15.9942C13.827 8.4888 26.0399 8.4888 33.5459 15.9942L38.0892 20.5375L33.6791 24.9476Z" fill="#594C42"/>
<path d="M19.3054 15.0457C16.6973 15.0457 14.5757 17.1673 14.5757 19.7754C14.5757 20.1484 14.8784 20.4511 15.2514 20.4511C15.6243 20.4511 15.927 20.1484 15.927 19.7754C15.927 17.9125 17.4426 16.397 19.3054 16.397C19.6784 16.397 19.9811 16.0943 19.9811 15.7213C19.9811 15.3484 19.6791 15.0457 19.3054 15.0457Z" fill="#594C42"/>
<path d="M19.9811 11.6672C15.1378 11.6672 11.1973 15.6078 11.1973 20.451C11.1973 25.2943 15.1378 29.2348 19.9811 29.2348C24.8243 29.2348 28.7648 25.2943 28.7648 20.451C28.7648 15.6078 24.825 11.6672 19.9811 11.6672ZM19.9811 27.8835C15.8831 27.8835 12.5486 24.549 12.5486 20.451C12.5486 16.353 15.8831 13.0186 19.9811 13.0186C24.079 13.0186 27.4135 16.353 27.4135 20.451C27.4135 24.549 24.0797 27.8835 19.9811 27.8835Z" fill="#594C42"/>
</g>
<defs>
<clipPath id="clip0">
<rect width="40" height="40" fill="white" transform="translate(0 0.471191)"/>
</clipPath>
</defs>
</svg>
