<svg width="20" height="31" viewBox="0 0 20 31" fill="none" xmlns="http://www.w3.org/2000/svg">
<path d="M19.1724 18.3604C19.1724 19.1783 18.5091 19.8416 17.6912 19.8416H12.6295L10.5602 29.9337C10.4909 30.2794 10.1865 30.5265 9.83621 30.5265C9.48588 30.5265 9.18218 30.2794 9.11158 29.9337L7.04227 19.8416H1.98055C1.16335 19.8416 0.5 19.1783 0.5 18.3604C0.5 16.1099 1.80206 14.0946 3.84406 12.7492V8.33286H2.46808C1.65087 8.33286 0.98819 7.67017 0.98819 6.8523V2.00771C0.98819 1.18984 1.65087 0.526489 2.46808 0.526489H5.32462H14.3485H17.2037C18.0222 0.526489 18.6842 1.18984 18.6842 2.00771V6.8523C18.6842 7.67017 18.0222 8.33286 17.2037 8.33286H15.829V12.7492C17.8704 14.0946 19.1724 16.1099 19.1724 18.3604Z" fill="#594C42"/>
</svg>
