<svg width="128" height="38" viewBox="0 0 128 38" fill="none" xmlns="http://www.w3.org/2000/svg">
<path d="M15.0911 37.2838C21.8215 37.2838 25.4585 33.396 27.256 29.8009L21.0691 26.8746C20.1494 29.0902 17.7666 30.9296 15.0911 30.9296C10.5345 30.9296 7.31565 26.1117 7.31565 21.5551C7.31565 16.9985 10.5345 13.487 15.0911 13.487C17.7666 13.487 20.1494 15.3263 21.0691 17.5419L27.256 15.922C25.4166 12.2433 21.8215 7.13281 15.0911 7.13281C6.52138 7.13281 0 12.9435 0 21.5551C0 30.1249 6.52138 37.2838 15.0911 37.2838Z" fill="#42484A"/>
<path d="M45.9583 37.2838C54.4862 37.2838 60.8404 31.3476 60.8404 22.8615C60.8404 18.0222 60.5976 7.27747 60.5976 7.27747C60.5976 7.27747 51.5066 11.0519 45.9583 11.0519C40.41 11.0519 31.421 7.13281 31.421 7.13281C31.421 7.13281 31.0343 18.0222 31.0343 22.8615C31.0343 31.3476 37.4303 37.2838 45.9583 37.2838ZM45.9583 30.9296C41.3181 30.9296 38.35 27.3763 38.35 22.8615C38.35 18.3049 41.3181 14.7933 45.9583 14.7933C50.5567 14.7933 53.5247 18.3049 53.5247 22.8615C53.5247 27.3763 50.5567 30.9296 45.9583 30.9296Z" fill="#42484A"/>
<path d="M82.8553 36.7821C88.3315 36.7821 91.0488 33.2706 91.0488 29.2156C91.0488 25.7041 88.7078 22.8615 85.7397 22.4016C88.3734 21.8164 90.5053 19.4754 90.5053 16.0057C90.5053 12.4941 87.9981 7.27747 82.48 7.27747H66.5518V36.7821H82.8553ZM80.7233 19.6008H73.742V13.2371H80.7233C82.1864 13.2371 83.0411 15.4783 83.0411 16.816C83.0411 18.1955 82.1864 19.6008 80.7233 19.6008ZM80.9741 30.7206H73.742V25.7041H80.9741C82.7298 25.7041 83.7331 26.8328 83.7331 28.2123C83.7331 29.7173 82.688 30.7206 80.9741 30.7206Z" fill="#42484A"/>
<path d="M124.144 36.7821L113.34 7.27747H104.362L94.0874 36.7821H102.239L103.619 32.7689H114.613L115.993 36.7821H124.144ZM112.648 26.4984H105.542L108.851 14.0105L112.648 26.4984Z" fill="#42484A"/>
</svg>
