<svg width="40" height="41" viewBox="0 0 40 41" fill="none" xmlns="http://www.w3.org/2000/svg">
<path d="M38 5.21106H2C0.895469 5.21106 0 6.10645 0 7.21106V33.8777C0 34.9822 0.895391 35.8777 2 35.8777H38C39.1045 35.8777 40 34.9823 40 33.8777V7.21106C40 6.10653 39.1046 5.21106 38 5.21106ZM38.6666 33.8778C38.6666 34.246 38.3682 34.5444 38 34.5444H2C1.6318 34.5444 1.33336 34.246 1.33336 33.8778V7.21106C1.33336 6.84286 1.6318 6.54442 2 6.54442H38C38.3682 6.54442 38.6666 6.84286 38.6666 7.21106V33.8778Z" fill="#C6BFBA"/>
<path d="M36.7247 7.88014C36.5486 7.86475 36.3735 7.91998 36.2381 8.03373L20.858 20.9537C20.362 21.3706 19.638 21.3706 19.142 20.9537L3.76209 8.03365C3.57967 7.88053 3.32935 7.83631 3.10552 7.91772C2.8817 7.99912 2.71826 8.19381 2.67685 8.42842C2.63545 8.66303 2.72232 8.90186 2.90474 9.05498L18.2847 21.9743C19.276 22.8089 20.7241 22.8089 21.7154 21.9743L37.0954 9.05506C37.2308 8.94139 37.3155 8.77858 37.3309 8.6024C37.3463 8.42623 37.2911 8.25115 37.1773 8.11576C37.0637 7.98022 36.9009 7.89553 36.7247 7.88014Z" fill="#C6BFBA"/>
<path d="M12.8222 21.8827C12.5862 21.8301 12.3403 21.9093 12.1794 22.0898L2.84599 32.0898C2.67709 32.2627 2.61506 32.5137 2.68396 32.7454C2.75287 32.9772 2.94185 33.1534 3.17779 33.2061C3.41381 33.2587 3.65974 33.1795 3.82068 32.999L13.154 22.999C13.3229 22.8261 13.385 22.5751 13.3161 22.3434C13.2472 22.1117 13.0583 21.9354 12.8222 21.8827Z" fill="#C6BFBA"/>
<path d="M27.8206 22.0898C27.6597 21.9093 27.4137 21.8301 27.1777 21.8827C26.9417 21.9354 26.7528 22.1117 26.6839 22.3434C26.615 22.5752 26.677 22.8261 26.8459 22.999L36.1793 32.9991C36.4324 33.2583 36.8461 33.268 37.1111 33.0208C37.376 32.7736 37.395 32.3601 37.1539 32.0897L27.8206 22.0898Z" fill="#C6BFBA"/>
</svg>
