<svg width="40" height="41" viewBox="0 0 40 41" fill="none" xmlns="http://www.w3.org/2000/svg">
<g clip-path="url(#clip0)">
<path d="M4.50746 5.05016C10.4786 -0.937558 20.1732 -0.951066 26.161 5.02012C31.9385 10.7816 32.1829 20.0616 26.7169 26.1193L27.8862 27.2886C28.8309 26.3438 30.3627 26.3436 31.3075 27.2883C31.3076 27.2884 31.3077 27.2885 31.3078 27.2886L39.2913 35.2721C40.2361 36.2168 40.2363 37.7486 39.2916 38.6934C39.2915 38.6935 39.2914 38.6936 39.2913 38.6937L38.151 39.834C37.2063 40.7784 35.6749 40.7784 34.7302 39.834L26.7467 31.8505C25.8019 30.9058 25.8017 29.374 26.7464 28.4292C26.7465 28.4291 26.7466 28.429 26.7467 28.4289L25.5774 27.2596C19.3035 32.9294 9.62132 32.4396 3.95153 26.1658C-1.52502 20.1057 -1.28037 10.8137 4.50746 5.05016ZM27.8862 30.7094L35.8697 38.6929C36.1846 39.0077 36.695 39.0077 37.0099 38.6929L38.1502 37.5519C38.4645 37.237 38.4645 36.7272 38.1502 36.4124L30.1667 28.4289C29.8478 28.124 29.3454 28.124 29.0264 28.4289L27.8862 29.57C27.5719 29.8848 27.5719 30.3946 27.8862 30.7094ZM5.64692 25.5782C11.0007 30.9318 19.6808 30.9317 25.0344 25.5779C30.388 20.2241 30.3879 11.544 25.0341 6.19043C19.6804 0.836955 11.0006 0.836955 5.64692 6.19043C0.30191 11.5478 0.30191 20.2208 5.64692 25.5782Z" fill="#C6BFBA"/>
<path d="M6.78799 7.32861L7.92825 8.46888C3.84126 12.5659 3.84126 19.1978 7.92825 23.2948L6.78799 24.4351C2.07089 19.7085 2.07089 12.0552 6.78799 7.32861Z" fill="#C6BFBA"/>
</g>
<defs>
<clipPath id="clip0">
<rect width="40" height="40" fill="white" transform="matrix(-1 0 0 1 40 0.544434)"/>
</clipPath>
</defs>
</svg>
