<svg width="40" height="41" viewBox="0 0 40 41" fill="none" xmlns="http://www.w3.org/2000/svg">
<g clip-path="url(#clip0)">
<path d="M33.3333 2.54443H28.6667V0.544434H27.3333V2.54443H23.3333V0.544434H22V2.54443H18V0.544434H16.6667V2.54443H12.6667V0.544434H11.3333V2.54443H6.66667C6.2985 2.54443 6 2.84293 6 3.2111V39.8778C6 40.2459 6.2985 40.5444 6.66667 40.5444H33.3333C33.7015 40.5444 34 40.2459 34 39.8778V3.2111C34 2.84293 33.7015 2.54443 33.3333 2.54443ZM28 5.87777C28.3682 5.87777 28.6667 6.17627 28.6667 6.54443C28.6667 6.9126 28.3682 7.2111 28 7.2111C27.6318 7.2111 27.3333 6.9126 27.3333 6.54443C27.3333 6.17627 27.6318 5.87777 28 5.87777ZM22.6667 5.87777C23.0348 5.87777 23.3333 6.17627 23.3333 6.54443C23.3333 6.9126 23.0348 7.2111 22.6667 7.2111C22.2985 7.2111 22 6.9126 22 6.54443C22 6.17627 22.2985 5.87777 22.6667 5.87777ZM17.3333 5.87777C17.7015 5.87777 18 6.17627 18 6.54443C18 6.9126 17.7015 7.2111 17.3333 7.2111C16.9652 7.2111 16.6667 6.9126 16.6667 6.54443C16.6667 6.17627 16.9652 5.87777 17.3333 5.87777ZM12 5.87777C12.3682 5.87777 12.6667 6.17627 12.6667 6.54443C12.6667 6.9126 12.3682 7.2111 12 7.2111C11.6318 7.2111 11.3333 6.9126 11.3333 6.54443C11.3333 6.17627 11.6318 5.87777 12 5.87777ZM32.6667 39.2111H7.33333V3.87777H11.3333V4.6671C10.2919 5.03527 9.74617 6.17802 10.1144 7.21935C10.4826 8.26077 11.6253 8.80652 12.6667 8.43827C13.708 8.07002 14.2538 6.92735 13.8856 5.88602C13.6843 5.31643 13.2362 4.86843 12.6667 4.6671V3.87777H16.6667V4.6671C15.6252 5.03527 15.0795 6.17802 15.4478 7.21935C15.8159 8.26077 16.9587 8.80652 18 8.43827C19.0413 8.07002 19.5872 6.92735 19.2189 5.88602C19.0176 5.31643 18.5695 4.86843 18 4.6671V3.87777H22V4.6671C20.9586 5.03527 20.4128 6.17802 20.7811 7.21935C21.1493 8.26068 22.2919 8.80652 23.3333 8.43835C24.3748 8.07018 24.9205 6.92743 24.5523 5.8861C24.3509 5.31652 23.9028 4.86852 23.3333 4.66718V3.87777H27.3333V4.6671C26.2919 5.03527 25.7462 6.17802 26.1144 7.21935C26.4827 8.26068 27.6252 8.80652 28.6667 8.43835C29.7081 8.07018 30.2538 6.92743 29.8856 5.8861C29.6843 5.31652 29.2362 4.86852 28.6667 4.66718V3.87777H32.6667V39.2111Z" fill="#C6BFBA"/>
<path d="M30 33.8778H10V35.2111H30V33.8778Z" fill="#C6BFBA"/>
<path d="M30 28.5444H10V29.8778H30V28.5444Z" fill="#C6BFBA"/>
<path d="M30 23.2111H10V24.5444H30V23.2111Z" fill="#C6BFBA"/>
<path d="M30 17.8778H10V19.2111H30V17.8778Z" fill="#C6BFBA"/>
<path d="M30 12.5444H10V13.8778H30V12.5444Z" fill="#C6BFBA"/>
</g>
<defs>
<clipPath id="clip0">
<rect width="40" height="40" fill="white" transform="translate(0 0.544434)"/>
</clipPath>
</defs>
</svg>
